<?xml version="1.0" encoding="iso-8859-1"?>
<!-- Generator: Adobe Illustrator 19.0.0, SVG Export Plug-In . SVG Version: 6.00 Build 0)  -->
<svg version="1.1" id="Capa_1" xmlns="http://www.w3.org/2000/svg" xmlns:xlink="http://www.w3.org/1999/xlink" x="0px" y="0px"
	 viewBox="0 0 512 512" style="enable-background:new 0 0 512 512;" xml:space="preserve">
<g>
	<g>
		<g>
			<path d="M503.467,469.313H51.2V17.046c0-4.713-3.82-8.533-8.533-8.533H8.533C3.82,8.513,0,12.333,0,17.046
				s3.82,8.533,8.533,8.533h25.6v34.133H25.6c-4.713,0-8.533,3.82-8.533,8.533s3.82,8.533,8.533,8.533h8.533v34.133H25.6
				c-4.713,0-8.533,3.82-8.533,8.533s3.82,8.533,8.533,8.533h8.533v34.133h-25.6c-4.713,0-8.533,3.82-8.533,8.533
				s3.82,8.533,8.533,8.533h25.6v34.133H25.6c-4.713,0-8.533,3.82-8.533,8.533s3.82,8.533,8.533,8.533h8.533v34.133H25.6
				c-4.713,0-8.533,3.821-8.533,8.533c0,4.713,3.82,8.533,8.533,8.533h8.533v34.133h-25.6c-4.713,0-8.533,3.82-8.533,8.533
				s3.82,8.533,8.533,8.533h25.6v34.133H25.6c-4.713,0-8.533,3.82-8.533,8.533s3.82,8.533,8.533,8.533h8.533v34.133H25.6
				c-4.713,0-8.533,3.82-8.533,8.533s3.82,8.533,8.533,8.533h8.533v34.133h-25.6c-4.713,0-8.533,3.82-8.533,8.533
				s3.82,8.533,8.533,8.533h25.6v17.067c0,4.713,3.82,8.533,8.533,8.533s8.533-3.82,8.533-8.533v-17.067h34.133v17.067
				c0,4.713,3.821,8.533,8.533,8.533c4.713,0,8.533-3.82,8.533-8.533v-17.067h34.133v17.067c0,4.713,3.82,8.533,8.533,8.533
				s8.533-3.82,8.533-8.533v-17.067h34.133v17.067c0,4.713,3.82,8.533,8.533,8.533s8.533-3.82,8.533-8.533v-17.067h34.133v17.067
				c0,4.713,3.82,8.533,8.533,8.533s8.533-3.82,8.533-8.533v-17.067h34.133v17.067c0,4.713,3.82,8.533,8.533,8.533
				s8.533-3.82,8.533-8.533v-17.067h34.133v17.067c0,4.713,3.82,8.533,8.533,8.533s8.533-3.82,8.533-8.533v-17.067h34.133v17.067
				c0,4.713,3.821,8.533,8.533,8.533s8.533-3.82,8.533-8.533v-17.067h34.133v17.067c0,4.713,3.821,8.533,8.533,8.533
				c4.713,0,8.533-3.82,8.533-8.533v-17.067h34.133v17.067c0,4.713,3.82,8.533,8.533,8.533s8.533-3.82,8.533-8.533v-25.6
				C512,473.133,508.18,469.313,503.467,469.313z"/>
			<path d="M74.534,392.339c2.983,0.781,6.156-0.109,8.299-2.327l70.767-70.767l36.634,36.634c3.332,3.331,8.734,3.331,12.066,0
				l74.3-74.3h5.001c14.138,0,25.6-11.462,25.6-25.6v-5.001l8.533-8.533l32.367,32.367c3.332,3.331,8.734,3.331,12.066,0
				L509.5,125.479c3.234-3.348,3.188-8.671-0.104-11.962c-3.292-3.292-8.614-3.338-11.962-0.104l-143.3,143.3l-32.367-32.367
				c-3.332-3.331-8.734-3.331-12.066,0l-7.108,7.108c-1.199-0.678-2.548-1.048-3.925-1.075H230.4c-4.713,0-8.533,3.82-8.533,8.533
				v17.067c0,14.139,11.461,25.6,25.6,25.6h5.001l-56.201,56.201l-36.634-36.634c-3.332-3.331-8.734-3.331-12.066,0l-76.8,76.8
				c-2.218,2.143-3.108,5.315-2.327,8.299C69.221,389.228,71.551,391.558,74.534,392.339z M247.467,264.513
				c-4.713,0-8.533-3.82-8.533-8.533v-8.533h51.2v8.533c0,4.713-3.82,8.533-8.533,8.533H247.467z"/>
			<path d="M197.666,152.163c12.254,17.118,23.834,33.314,24.201,52.779c0.088,4.649,3.883,8.372,8.533,8.371h68.267
				c4.65,0.001,8.445-3.722,8.533-8.371c0.367-19.465,11.947-35.661,24.201-52.821c7.364-9.688,13.852-20.011,19.388-30.848
				c15.55-33.818,6.175-73.875-22.767-97.28c-36.291-31.962-90.685-31.962-126.976,0c-28.963,23.411-38.34,63.494-22.767,97.323
				C183.814,132.152,190.302,142.475,197.666,152.163z M212.301,36.783c29.85-26.315,74.615-26.315,104.465,0
				c23.119,18.449,30.778,50.229,18.603,77.184c-5.112,9.916-11.089,19.362-17.86,28.228c-11.699,16.384-23.748,33.28-26.701,54.05
				h-52.548c-2.953-20.796-15.002-37.666-26.701-54.05c-6.768-8.867-12.742-18.313-17.852-28.228
				C181.529,87.014,189.185,55.235,212.301,36.783z"/>
			<path d="M273.067,358.379c-4.713,0-8.533,3.82-8.533,8.533v76.8c0,4.713,3.821,8.533,8.533,8.533c4.713,0,8.533-3.82,8.533-8.533
				v-8.533l20.48,15.36c2.439,1.829,5.668,2.218,8.472,1.021s4.755-3.8,5.12-6.827c0.365-3.027-0.913-6.018-3.352-7.847
				l-25.028-18.773l25.028-18.773c3.77-2.828,4.534-8.176,1.707-11.947c-2.828-3.77-8.176-4.534-11.947-1.707l-20.48,15.36v-34.133
				C281.6,362.2,277.779,358.379,273.067,358.379z"/>
			<path d="M410.035,364.216l-17.502,52.514l-8.969-26.914c-1.151-3.502-4.42-5.869-8.107-5.869c-3.686,0-6.956,2.367-8.107,5.869
				L358.4,416.73l-17.502-52.514c-1.489-4.477-6.326-6.899-10.803-5.41c-4.477,1.489-6.899,6.326-5.41,10.803l25.6,76.8
				c1.163,3.492,4.434,5.845,8.115,5.837c3.674,0.001,6.937-2.351,8.098-5.837l8.969-26.914l8.969,26.914
				c1.151,3.502,4.421,5.869,8.107,5.869s6.956-2.367,8.107-5.869l25.6-76.8c1.489-4.477-0.933-9.314-5.41-10.803
				C416.361,357.317,411.524,359.739,410.035,364.216z"/>
			<path d="M477.867,452.246c4.713,0,8.533-3.82,8.533-8.533v-25.6c0-9.426-7.641-17.067-17.067-17.067h-17.067v-34.133
				c0-4.713-3.82-8.533-8.533-8.533s-8.533,3.82-8.533,8.533v76.8c0,4.713,3.82,8.533,8.533,8.533s8.533-3.82,8.533-8.533v-25.6
				h17.067v25.6C469.333,448.425,473.154,452.246,477.867,452.246z"/>
		</g>
	</g>
</g>
<g>
</g>
<g>
</g>
<g>
</g>
<g>
</g>
<g>
</g>
<g>
</g>
<g>
</g>
<g>
</g>
<g>
</g>
<g>
</g>
<g>
</g>
<g>
</g>
<g>
</g>
<g>
</g>
<g>
</g>
</svg>
