<svg id="Capa_1" enable-background="new 0 0 512 512" height="512" viewBox="0 0 512 512" width="512" xmlns="http://www.w3.org/2000/svg"><g><path d="m421 166c0-24.814-20.186-45-45-45s-45 20.186-45 45v75h-30v-135c0-24.814-20.186-45-45-45s-45 20.186-45 45v135h-30v-75c0-24.814-20.186-45-45-45s-45 20.186-45 45v75h-91v30h31v75c0 24.814 20.186 45 45 45s45-20.186 45-45v-75h30v135c0 24.814 20.186 45 45 45s45-20.186 45-45v-135h30v135c0 24.814 20.186 45 45 45s45-20.186 45-45v-135h30v75c0 24.814 20.186 45 45 45s45-20.186 45-45v-75h31v-30h-91zm-330 180c0 8.276-6.724 15-15 15s-15-6.724-15-15v-75h30zm60-105h-30v-75c0-8.276 6.724-15 15-15s15 6.724 15 15zm60 165c0 8.276-6.724 15-15 15s-15-6.724-15-15v-135h30zm60-165h-30v-135c0-8.276 6.724-15 15-15s15 6.724 15 15zm60 165c0 8.276-6.724 15-15 15s-15-6.724-15-15v-135h30zm60-165h-30v-75c0-8.276 6.724-15 15-15s15 6.724 15 15zm60 30v75c0 8.276-6.724 15-15 15s-15-6.724-15-15v-75z"/></g></svg>